<mxfile host="app.diagrams.net" modified="2024-03-08T22:56:39.322Z" agent="Mozilla/5.0 (Windows NT 10.0; Win64; x64) AppleWebKit/537.36 (KHTML, like Gecko) Chrome/122.0.0.0 Safari/537.36" etag="FKduhyC4Ebkf7SfU29V6" version="24.0.3" type="device">
  <diagram id="LhVTmfn_bVOVVTIXNYQG" name="Page-1">
    <mxGraphModel dx="882" dy="578" grid="1" gridSize="10" guides="1" tooltips="1" connect="1" arrows="1" fold="1" page="1" pageScale="1" pageWidth="850" pageHeight="1100" math="0" shadow="0">
      <root>
        <mxCell id="0" />
        <mxCell id="1" parent="0" />
        <mxCell id="mxt_99j0Ch-9hE5udNQF-16" style="edgeStyle=orthogonalEdgeStyle;rounded=0;orthogonalLoop=1;jettySize=auto;html=1;exitX=1;exitY=0.5;exitDx=0;exitDy=0;" edge="1" parent="1" source="mxt_99j0Ch-9hE5udNQF-1" target="mxt_99j0Ch-9hE5udNQF-2">
          <mxGeometry relative="1" as="geometry" />
        </mxCell>
        <mxCell id="mxt_99j0Ch-9hE5udNQF-1" value="Input features" style="rounded=1;whiteSpace=wrap;html=1;" vertex="1" parent="1">
          <mxGeometry x="80" y="360" width="120" height="60" as="geometry" />
        </mxCell>
        <mxCell id="mxt_99j0Ch-9hE5udNQF-17" style="edgeStyle=orthogonalEdgeStyle;rounded=0;orthogonalLoop=1;jettySize=auto;html=1;exitX=0.25;exitY=0;exitDx=0;exitDy=0;entryX=0;entryY=0.5;entryDx=0;entryDy=0;" edge="1" parent="1" source="mxt_99j0Ch-9hE5udNQF-2" target="mxt_99j0Ch-9hE5udNQF-3">
          <mxGeometry relative="1" as="geometry" />
        </mxCell>
        <mxCell id="mxt_99j0Ch-9hE5udNQF-18" style="edgeStyle=orthogonalEdgeStyle;rounded=0;orthogonalLoop=1;jettySize=auto;html=1;exitX=0.25;exitY=1;exitDx=0;exitDy=0;entryX=0;entryY=0.5;entryDx=0;entryDy=0;" edge="1" parent="1" source="mxt_99j0Ch-9hE5udNQF-2" target="mxt_99j0Ch-9hE5udNQF-9">
          <mxGeometry relative="1" as="geometry" />
        </mxCell>
        <mxCell id="mxt_99j0Ch-9hE5udNQF-19" style="edgeStyle=orthogonalEdgeStyle;rounded=0;orthogonalLoop=1;jettySize=auto;html=1;exitX=0.75;exitY=1;exitDx=0;exitDy=0;entryX=0;entryY=0.5;entryDx=0;entryDy=0;" edge="1" parent="1" source="mxt_99j0Ch-9hE5udNQF-2" target="mxt_99j0Ch-9hE5udNQF-8">
          <mxGeometry relative="1" as="geometry" />
        </mxCell>
        <mxCell id="mxt_99j0Ch-9hE5udNQF-20" style="edgeStyle=orthogonalEdgeStyle;rounded=0;orthogonalLoop=1;jettySize=auto;html=1;exitX=0.75;exitY=0;exitDx=0;exitDy=0;entryX=0;entryY=0.5;entryDx=0;entryDy=0;" edge="1" parent="1" source="mxt_99j0Ch-9hE5udNQF-2" target="mxt_99j0Ch-9hE5udNQF-4">
          <mxGeometry relative="1" as="geometry" />
        </mxCell>
        <mxCell id="mxt_99j0Ch-9hE5udNQF-21" style="edgeStyle=orthogonalEdgeStyle;rounded=0;orthogonalLoop=1;jettySize=auto;html=1;exitX=1;exitY=0.25;exitDx=0;exitDy=0;entryX=0;entryY=0.5;entryDx=0;entryDy=0;" edge="1" parent="1" source="mxt_99j0Ch-9hE5udNQF-2" target="mxt_99j0Ch-9hE5udNQF-5">
          <mxGeometry relative="1" as="geometry" />
        </mxCell>
        <mxCell id="mxt_99j0Ch-9hE5udNQF-22" style="edgeStyle=orthogonalEdgeStyle;rounded=0;orthogonalLoop=1;jettySize=auto;html=1;exitX=1;exitY=0.75;exitDx=0;exitDy=0;entryX=0;entryY=0.5;entryDx=0;entryDy=0;" edge="1" parent="1" source="mxt_99j0Ch-9hE5udNQF-2" target="mxt_99j0Ch-9hE5udNQF-7">
          <mxGeometry relative="1" as="geometry" />
        </mxCell>
        <mxCell id="mxt_99j0Ch-9hE5udNQF-2" value="Shared layers" style="rounded=1;whiteSpace=wrap;html=1;" vertex="1" parent="1">
          <mxGeometry x="280" y="360" width="120" height="60" as="geometry" />
        </mxCell>
        <mxCell id="mxt_99j0Ch-9hE5udNQF-23" style="edgeStyle=orthogonalEdgeStyle;rounded=0;orthogonalLoop=1;jettySize=auto;html=1;exitX=1;exitY=0.5;exitDx=0;exitDy=0;" edge="1" parent="1" source="mxt_99j0Ch-9hE5udNQF-3" target="mxt_99j0Ch-9hE5udNQF-10">
          <mxGeometry relative="1" as="geometry" />
        </mxCell>
        <mxCell id="mxt_99j0Ch-9hE5udNQF-3" value="Skip classification head" style="rounded=1;whiteSpace=wrap;html=1;" vertex="1" parent="1">
          <mxGeometry x="480" y="40" width="120" height="60" as="geometry" />
        </mxCell>
        <mxCell id="mxt_99j0Ch-9hE5udNQF-25" style="edgeStyle=orthogonalEdgeStyle;rounded=0;orthogonalLoop=1;jettySize=auto;html=1;exitX=1;exitY=0.5;exitDx=0;exitDy=0;" edge="1" parent="1" source="mxt_99j0Ch-9hE5udNQF-4" target="mxt_99j0Ch-9hE5udNQF-11">
          <mxGeometry relative="1" as="geometry" />
        </mxCell>
        <mxCell id="mxt_99j0Ch-9hE5udNQF-4" value="Dwell time classification head" style="rounded=1;whiteSpace=wrap;html=1;" vertex="1" parent="1">
          <mxGeometry x="480" y="160" width="120" height="60" as="geometry" />
        </mxCell>
        <mxCell id="mxt_99j0Ch-9hE5udNQF-26" style="edgeStyle=orthogonalEdgeStyle;rounded=0;orthogonalLoop=1;jettySize=auto;html=1;exitX=1;exitY=0.5;exitDx=0;exitDy=0;entryX=0;entryY=0.5;entryDx=0;entryDy=0;" edge="1" parent="1" source="mxt_99j0Ch-9hE5udNQF-5" target="mxt_99j0Ch-9hE5udNQF-12">
          <mxGeometry relative="1" as="geometry" />
        </mxCell>
        <mxCell id="mxt_99j0Ch-9hE5udNQF-5" value="Click classification head" style="rounded=1;whiteSpace=wrap;html=1;" vertex="1" parent="1">
          <mxGeometry x="480" y="280" width="120" height="60" as="geometry" />
        </mxCell>
        <mxCell id="mxt_99j0Ch-9hE5udNQF-27" style="edgeStyle=orthogonalEdgeStyle;rounded=0;orthogonalLoop=1;jettySize=auto;html=1;exitX=1;exitY=0.5;exitDx=0;exitDy=0;entryX=0;entryY=0.5;entryDx=0;entryDy=0;" edge="1" parent="1" source="mxt_99j0Ch-9hE5udNQF-7" target="mxt_99j0Ch-9hE5udNQF-13">
          <mxGeometry relative="1" as="geometry" />
        </mxCell>
        <mxCell id="mxt_99j0Ch-9hE5udNQF-7" value="Like classification head" style="rounded=1;whiteSpace=wrap;html=1;" vertex="1" parent="1">
          <mxGeometry x="480" y="400" width="120" height="60" as="geometry" />
        </mxCell>
        <mxCell id="mxt_99j0Ch-9hE5udNQF-28" style="edgeStyle=orthogonalEdgeStyle;rounded=0;orthogonalLoop=1;jettySize=auto;html=1;exitX=1;exitY=0.5;exitDx=0;exitDy=0;entryX=0;entryY=0.5;entryDx=0;entryDy=0;" edge="1" parent="1" source="mxt_99j0Ch-9hE5udNQF-8" target="mxt_99j0Ch-9hE5udNQF-14">
          <mxGeometry relative="1" as="geometry" />
        </mxCell>
        <mxCell id="mxt_99j0Ch-9hE5udNQF-8" value="Share classification head" style="rounded=1;whiteSpace=wrap;html=1;" vertex="1" parent="1">
          <mxGeometry x="480" y="520" width="120" height="60" as="geometry" />
        </mxCell>
        <mxCell id="mxt_99j0Ch-9hE5udNQF-29" style="edgeStyle=orthogonalEdgeStyle;rounded=0;orthogonalLoop=1;jettySize=auto;html=1;exitX=1;exitY=0.5;exitDx=0;exitDy=0;entryX=0;entryY=0.5;entryDx=0;entryDy=0;" edge="1" parent="1" source="mxt_99j0Ch-9hE5udNQF-9" target="mxt_99j0Ch-9hE5udNQF-15">
          <mxGeometry relative="1" as="geometry" />
        </mxCell>
        <mxCell id="mxt_99j0Ch-9hE5udNQF-9" value="Comment classification head" style="rounded=1;whiteSpace=wrap;html=1;" vertex="1" parent="1">
          <mxGeometry x="480" y="640" width="120" height="60" as="geometry" />
        </mxCell>
        <mxCell id="mxt_99j0Ch-9hE5udNQF-10" value="Skip probability" style="rounded=1;whiteSpace=wrap;html=1;" vertex="1" parent="1">
          <mxGeometry x="680" y="40" width="120" height="60" as="geometry" />
        </mxCell>
        <mxCell id="mxt_99j0Ch-9hE5udNQF-11" value="Dwell time probability" style="rounded=1;whiteSpace=wrap;html=1;" vertex="1" parent="1">
          <mxGeometry x="680" y="160" width="120" height="60" as="geometry" />
        </mxCell>
        <mxCell id="mxt_99j0Ch-9hE5udNQF-12" value="Click probability" style="rounded=1;whiteSpace=wrap;html=1;" vertex="1" parent="1">
          <mxGeometry x="680" y="280" width="120" height="60" as="geometry" />
        </mxCell>
        <mxCell id="mxt_99j0Ch-9hE5udNQF-13" value="Like probability" style="rounded=1;whiteSpace=wrap;html=1;" vertex="1" parent="1">
          <mxGeometry x="680" y="400" width="120" height="60" as="geometry" />
        </mxCell>
        <mxCell id="mxt_99j0Ch-9hE5udNQF-14" value="Share probability" style="rounded=1;whiteSpace=wrap;html=1;" vertex="1" parent="1">
          <mxGeometry x="680" y="520" width="120" height="60" as="geometry" />
        </mxCell>
        <mxCell id="mxt_99j0Ch-9hE5udNQF-15" value="Comment probability" style="rounded=1;whiteSpace=wrap;html=1;" vertex="1" parent="1">
          <mxGeometry x="680" y="640" width="120" height="60" as="geometry" />
        </mxCell>
      </root>
    </mxGraphModel>
  </diagram>
</mxfile>
